<svg height='100px' width='100px'  fill="#8bc53e" xmlns="http://www.w3.org/2000/svg" xmlns:xlink="http://www.w3.org/1999/xlink" version="1.1" x="0px" y="0px" viewBox="0 0 60 60" style="enable-background:new 0 0 60 60;" xml:space="preserve"><path d="M7,54h12c0.5499878,0,1-0.4500122,1-1V7c0-0.5499878-0.4500122-1-1-1H7C6.4500122,6,6,6.4500122,6,7v46  C6,53.5499878,6.4500122,54,7,54z"></path><path d="M53,6H41c-0.5499878,0-1,0.4500122-1,1v46c0,0.5499878,0.4500122,1,1,1h12c0.5499878,0,1-0.4500122,1-1V7  C54,6.4500122,53.5499878,6,53,6z"></path><path d="M24,54h12c0.5499878,0,1-0.4500122,1-1V7c0-0.5499878-0.4500122-1-1-1H24c-0.5499878,0-1,0.4500122-1,1v46  C23,53.5499878,23.4500122,54,24,54z"></path></svg>