<svg id="Layer_1" data-name="Layer 1" xmlns="http://www.w3.org/2000/svg" viewBox="0 0 86.84 60.06">
  <defs>
    <style>
      .cls-1 {
        fill: #010101;
        fill-rule: evenodd;
      }
    </style>
  </defs>
  <path class="cls-1" d="m83.92,46.06h-25.48V14.59h25.48v31.48Zm-.83,11.09h-6.7v-6.89h6.7v6.89Zm-12.11,0h-6.69v-6.89h6.69v6.89Zm-12.09,0h-6.7v-6.89h6.7v6.89Zm-12.11,0h-6.69v-6.89h6.69v6.89Zm-12.11,0h-6.69v-6.89h6.69v6.89Zm-12.1,0h-6.69v-6.89h6.69v6.89Zm-12.1,0H3.77v-6.89h6.69v6.89ZM2.93,14.59h25.47v31.48H2.93V14.59Zm.84-11.09h6.69v6.88H3.77V3.5Zm12.1,0h6.69v6.88h-6.69V3.5Zm12.1,0h6.69v6.88h-6.69V3.5Zm12.1,0h6.69v6.88h-6.69V3.5Zm16.09,11.09v31.48h-25.47V14.59h25.47Zm-3.98-11.09h6.7v6.88h-6.7V3.5Zm12.1,0h6.69v6.88h-6.69V3.5Zm12.1,0h6.7v6.88h-6.7V3.5ZM2.13,0C.96,0,0,.97,0,2.19v55.68c0,1.21.96,2.19,2.13,2.19h82.58c1.18,0,2.13-.98,2.13-2.19V2.19c0-1.21-.95-2.19-2.13-2.19H2.13Z"/>
</svg>