<?xml version="1.0" encoding="UTF-8"?>
<svg width="1200pt" height="1200pt" version="1.1" viewBox="0 0 1200 1200" xmlns="http://www.w3.org/2000/svg">
 <path d="m305.27 373.29c-16.746 0-30.23 13.48-30.23 30.23v330.39l192.94-204.75 0.003906-0.007812c2.2969-2.5117 5.375-4.1758 8.7383-4.7227 5.1133-0.80078 10.281 1.0703 13.695 4.9609l156.1 175.7 108.63-115.48h0.003906c2.2969-2.5117 5.375-4.1758 8.7383-4.7227 5.1133-0.80078 10.281 1.0703 13.695 4.9609l147.36 164.37v-350.7c0-16.746-13.48-30.23-30.23-30.23h-589.46zm347.63 75.57c25.043 0 45.344 20.301 45.344 45.344s-20.301 45.344-45.344 45.344c-25.043 0-45.344-20.301-45.344-45.344s20.301-45.344 45.344-45.344zm-174.05 112.88-203.81 216.09v18.656c0 16.746 13.48 30.23 30.23 30.23h409.03zm287.17 60.457-99.422 105.56 88.09 98.953h140.04c15.785 0 28.562-11.996 29.992-27.395l-158.7-177.12z"/>
</svg>
