<svg height='100px' width='100px'  fill="#8bc53e" xmlns:x="http://ns.adobe.com/Extensibility/1.0/" xmlns:i="http://ns.adobe.com/AdobeIllustrator/10.0/" xmlns:graph="http://ns.adobe.com/Graphs/1.0/" xmlns="http://www.w3.org/2000/svg" xmlns:xlink="http://www.w3.org/1999/xlink" version="1.1" x="0px" y="0px" viewBox="0 0 100 100" style="enable-background:new 0 0 100 100;" xml:space="preserve"><g><g i:extraneous="self"><g><path d="M5273.1,2400.1v-2c0-2.8-5-4-9.7-4s-9.7,1.3-9.7,4v2c0,1.8,0.7,3.6,2,4.9l5,4.9c0.3,0.3,0.4,0.6,0.4,1v6.4     c0,0.4,0.2,0.7,0.6,0.8l2.9,0.9c0.5,0.1,1-0.2,1-0.8v-7.2c0-0.4,0.2-0.7,0.4-1l5.1-5C5272.4,2403.7,5273.1,2401.9,5273.1,2400.1z      M5263.4,2400c-4.8,0-7.4-1.3-7.5-1.8v0c0.1-0.5,2.7-1.8,7.5-1.8c4.8,0,7.3,1.3,7.5,1.8C5270.7,2398.7,5268.2,2400,5263.4,2400z"></path><path d="M5268.4,2410.3c-0.6,0-1,0.4-1,1c0,0.6,0.4,1,1,1h4.3c0.6,0,1-0.4,1-1c0-0.6-0.4-1-1-1H5268.4z"></path><path d="M5272.7,2413.7h-4.3c-0.6,0-1,0.4-1,1c0,0.6,0.4,1,1,1h4.3c0.6,0,1-0.4,1-1C5273.7,2414.1,5273.3,2413.7,5272.7,2413.7z"></path><path d="M5272.7,2417h-4.3c-0.6,0-1,0.4-1,1c0,0.6,0.4,1,1,1h4.3c0.6,0,1-0.4,1-1C5273.7,2417.5,5273.3,2417,5272.7,2417z"></path></g><g><path d="M95.2,3.9H4.8c-1.3,0-2.3,1-2.3,2.3V17c0,1.3,1,2.3,2.3,2.3h90.3c1.3,0,2.3-1,2.3-2.3V6.2C97.5,4.9,96.5,3.9,95.2,3.9z"></path><path d="M95.2,29.5H4.8c-1.3,0-2.3,1-2.3,2.3v10.8c0,1.3,1,2.3,2.3,2.3h90.3c1.3,0,2.3-1,2.3-2.3V31.8     C97.5,30.5,96.5,29.5,95.2,29.5z"></path><path d="M95.2,55.1H4.8c-1.3,0-2.3,1-2.3,2.3v10.8c0,1.3,1,2.3,2.3,2.3h90.3c1.3,0,2.3-1,2.3-2.3V57.4     C97.5,56.1,96.5,55.1,95.2,55.1z"></path><path d="M95.2,80.7H4.8c-1.3,0-2.3,1-2.3,2.3v10.8c0,1.3,1,2.3,2.3,2.3h90.3c1.3,0,2.3-1,2.3-2.3V83     C97.5,81.7,96.5,80.7,95.2,80.7z"></path></g></g></g></svg>