<svg version="1.1" id="navbar-logo" xmlns="http://www.w3.org/2000/svg" xmlns:xlink="http://www.w3.org/1999/xlink" x="0px" y="0px"
	 	 viewBox="0 0 100 100" style="enable-background:new 0 0 847.6 149.6;" xml:space="preserve">
 style="enable-background:new 0 0 847.6 149.6;" xml:space="preserve">
 <g>
  <path d="m42.191 39.621c5.3906 0.0625 9.8359 3.25 9.9141 7.0898 0.078125 3.8438-4.2383 6.9141-9.6328 6.8516l-27.352-0.3125c-0.93359-0.53906-1.3359-3.1992-1.3359-3.1992h-3.1328l-0.011719 2.6055 0.007813 0.53906h-0.007813l0.019531 1.1133 31.828 0.36719c6.2539 0.074219 11.277-3.4922 11.184-7.9492-0.089844-4.4688-5.2578-8.1523-11.516-8.2188l-27.852-0.32422c-0.57422-0.96094-0.82813-2.6523-0.82813-2.6523h-3.1328l-0.015625 2.6055 0.023437 1.1133z"/>
  <path d="m89.656 56.121-5.1406-3.4766c-0.19531-0.13672-0.32031-0.35156-0.33984-0.58203-0.019531-0.23828 0.074219-0.47266 0.24609-0.63281l4.5508-4.2227c0.26562-0.25391 0.32422-0.64453 0.14453-0.96094-0.18359-0.3125-0.55859-0.46094-0.90234-0.35156l-5.9258 1.8516c-0.22656 0.066406-0.47656 0.035156-0.66797-0.097656-0.19531-0.13672-0.32031-0.35156-0.33984-0.58984l-0.46484-6.1914c-0.027344-0.36328-0.30469-0.65625-0.66016-0.71094-0.35938-0.050781-0.70312 0.15234-0.83594 0.49219l-2.2461 5.7852c-0.085938 0.22266-0.26953 0.39062-0.49219 0.46094-0.22656 0.074219-0.47266 0.035157-0.66797-0.097656l-5.1328-3.4922c-0.30078-0.20703-0.69922-0.17969-0.96484 0.074218-0.26562 0.24609-0.32422 0.64453-0.14453 0.95703l1.1719 2.0117c1.3008 0.34766 2.5859 0.76172 3.832 1.3125 0.054688 0.019532 0.10938 0.042969 0.16406 0.074219l0.011718 0.007813c0.074219 0.035156 0.47656 0.21875 1.1211 0.21875 0.35547 0 0.73047-0.054688 1.1055-0.16406 0.085937-0.042969 0.26562-0.097656 0.44531-0.15234 0.066406-0.03125 0.13672-0.050781 0.21094-0.054687v-0.007813c0.42188-0.10547 0.78516-0.15234 1.1445-0.15234 2.6992 0 4.8945 2.1953 4.8945 4.8906 0 2.6953-2.1953 4.8906-4.8945 4.8906-1.8633 0-3.5352-1.0469-4.3633-2.7383-0.011719-0.019531-0.023437-0.042968-0.03125-0.066406-0.074219-0.16016-0.14844-0.32031-0.20703-0.48438-0.33594-0.41016-1.0273-0.84375-1.3984-1.0469-0.95703-0.35547-2.2266-0.75391-3.6797-1.0586l-2.7852 0.85938c-0.34766 0.10938-0.57422 0.44141-0.54687 0.80469 0.027343 0.36328 0.30469 0.65625 0.66016 0.71094l6.1406 0.90234c0.23438 0.03125 0.4375 0.17188 0.55859 0.37891 0.12109 0.20312 0.13672 0.45312 0.050782 0.67578l-2.2695 5.7812c-0.13281 0.33594-0.011718 0.72266 0.28906 0.92578s0.70312 0.17188 0.96875-0.074219l4.5352-4.2422c0.17188-0.16406 0.41016-0.23828 0.64453-0.20312 0.23438 0.035156 0.44141 0.17969 0.5625 0.37891l3.1055 5.375c0.17969 0.3125 0.55469 0.46094 0.90234 0.35547 0.35156-0.10937 0.57422-0.44141 0.54688-0.80469l-0.48828-6.1914c-0.019531-0.23438 0.074219-0.46484 0.24609-0.63281 0.17578-0.16016 0.41016-0.23438 0.64453-0.19531l6.1367 0.92578c0.35938 0.050781 0.70313-0.14844 0.83984-0.48828 0.13672-0.34766 0.019532-0.73047-0.28516-0.9375z"/>
  <path d="m42.605 47.352c0.44141 0.03125 0.88281 0.074219 1.3086 0.14844 0.0625 0.011719 0.12109 0.023438 0.17969 0.035156 0.52344 0.09375 1.0352 0.21484 1.5273 0.36328 0.011718 0.007812 0.027344 0.007812 0.042968 0.011718 0.38281 0.12109 0.75391 0.26562 1.1172 0.41797 0.09375 0.042969 0.19141 0.085937 0.28516 0.12891 0.34375 0.16016 0.67969 0.32422 0.99609 0.50781 0.007812 0.007812 0.019531 0.011718 0.03125 0.019531 0.32422 0.19531 0.625 0.40625 0.91406 0.625 0.074219 0.054687 0.14453 0.10938 0.21484 0.16406 0.1875 0.15234 0.35156 0.3125 0.52344 0.47266 0.03125-0.03125 0.070312-0.0625 0.10156-0.09375 0.98828-1.0117 1.5-2.1953 1.4766-3.4219-0.070313-3.4336-4.1719-6.2656-9.1406-6.3242l-31.828-0.36719c-0.035157 0-0.066407-0.019531-0.097657-0.019531l-0.25781 5.8125 0.023438 1.1133 31.828 0.36719c0.25391 0.007812 0.50391 0.019531 0.75391 0.039062zm-30-2.6797c-0.64844 0-1.1758-0.52734-1.1758-1.1719 0-0.64844 0.52734-1.1758 1.1758-1.1758 0.64844 0 1.1758 0.52734 1.1758 1.1758 0 0.64453-0.52734 1.1719-1.1758 1.1719z"/>
  <path d="m74.977 53.547c0.058594 0.19141 0.14063 0.36719 0.22266 0.53906 0.003906 0.011718 0.007812 0.023437 0.007812 0.035156h0.007813c0.66797 1.3594 2.0469 2.3047 3.6602 2.3047 2.2695 0 4.1133-1.8398 4.1133-4.1133 0-2.2695-1.8398-4.1055-4.1133-4.1055-0.33203 0-0.64844 0.050781-0.95703 0.12891-0.003907-0.007813-0.003907-0.007813-0.003907-0.007813-0.0625 0.023437-0.11328 0.03125-0.17578 0.054687-0.15234 0.050782-0.30469 0.09375-0.44922 0.15234-1.5156 0.44531-2.5391 0.023438-2.7969-0.10547-0.007813-0.007813-0.007813-0.007813-0.011719-0.007813-0.035157-0.019531-0.054688-0.03125-0.054688-0.03125-9.2148-4.0469-17.492-1.6055-20.055-0.64844-0.11719 0.87891-0.42188 1.7109-0.88672 2.5078-0.33203 0.57031-0.71484 1.1289-1.2148 1.6406-2.1914 2.2305-5.7734 3.5664-9.5859 3.5664l-32.027-0.36719c-0.035156 0-0.0625-0.019532-0.09375-0.023438l-0.26172 5.8164 0.023438 1.1133 31.824 0.36719c0.33594 0.007813 0.66797-0.007812 0.99609-0.019531 0.015625 0 0.03125-0.007812 0.050781-0.007812 0.53516-0.03125 1.0586-0.09375 1.5625-0.17188 0.054688-0.007812 0.11328-0.007812 0.16797-0.019531 0.042969-0.007812 0.078125-0.019531 0.12109-0.03125 0.64844-0.11719 1.2773-0.26953 1.8789-0.46484 0.039063-0.011719 0.082031-0.019532 0.12109-0.03125 0.035156-0.011719 0.066406-0.03125 0.10156-0.042969 0.48047-0.16406 0.94141-0.35547 1.3867-0.57031 0.074219-0.035156 0.14844-0.074218 0.22266-0.10938 0.44141-0.22656 0.85938-0.46484 1.2461-0.73438 0.035156-0.023437 0.066406-0.050781 0.10156-0.074218 0.37891-0.26953 0.73438-0.5625 1.0586-0.87109 0.027344-0.023438 0.0625-0.054688 0.09375-0.078125 0.31641-0.3125 0.59375-0.64844 0.84766-1 0.019531-0.03125 0.054687-0.0625 0.078125-0.09375 0.027344-0.035157 0.046875-0.078125 0.074218-0.11719 0.085938-0.12891 0.16406-0.26562 0.23828-0.39062 0.066406-0.10938 0.12891-0.21875 0.18359-0.33203 0.066406-0.12891 0.12109-0.26562 0.17969-0.39844 0.03125-0.078126 0.074219-0.16016 0.10547-0.23828 0.007812-0.023437 0.011718-0.054687 0.019531-0.078125 0.085937-0.23828 0.12891-0.48438 0.18359-0.73047l-0.007813 0.12891c6.418-7.4766 15.48-5.4531 20.074-3.7188 0.042969 0.023437 1.2383 0.65625 1.7422 1.3789zm3.9844-2.4062c0.64844 0 1.1758 0.52734 1.1758 1.1758 0 0.64453-0.52734 1.1719-1.1758 1.1719-0.64453 0-1.1758-0.52734-1.1758-1.1719 0-0.65234 0.52734-1.1758 1.1758-1.1758zm-66.062 8.9219c-0.64844 0-1.1758-0.52734-1.1758-1.1719 0-0.64844 0.52734-1.1758 1.1758-1.1758 0.64844 0 1.1758 0.52734 1.1758 1.1758 0 0.64453-0.52344 1.1719-1.1758 1.1719z"/>
 </g>
</svg>